<svg xmlns="http://www.w3.org/2000/svg" xmlns:xlink="http://www.w3.org/1999/xlink" viewBox="0 0 214.43 205.29"><defs><style>.cls-1{fill:none;}.cls-2{fill:url(#linear-gradient);}.cls-3{fill:url(#linear-gradient-2);}.cls-4{fill:url(#linear-gradient-3);}.cls-5{fill:url(#linear-gradient-4);}.cls-6{fill:url(#linear-gradient-5);}.cls-7{fill:url(#linear-gradient-6);}.cls-8{fill:url(#linear-gradient-7);}.cls-9{fill:#c1c7d0;}.cls-10{fill:#a9b0bb;}.cls-11{fill:#0065ff;}.cls-12{fill:#004fd0;}</style><linearGradient id="linear-gradient" x1="1032.64" y1="-139.28" x2="1033.64" y2="-139.28" gradientTransform="matrix(104.08, -104.08, -104.08, -104.08, -121904.62, 93111.96)" gradientUnits="userSpaceOnUse"><stop offset="0" stop-color="#ff991f"/><stop offset="1" stop-color="#ffc400"/></linearGradient><linearGradient id="linear-gradient-2" x1="1032.64" y1="-139.56" x2="1033.64" y2="-139.56" xlink:href="#linear-gradient"/><linearGradient id="linear-gradient-3" x1="1032.64" y1="-139.19" x2="1033.64" y2="-139.19" xlink:href="#linear-gradient"/><linearGradient id="linear-gradient-4" x1="1032.64" y1="-139.56" x2="1033.64" y2="-139.56" xlink:href="#linear-gradient"/><linearGradient id="linear-gradient-5" x1="1032.64" y1="-139.5" x2="1033.64" y2="-139.5" gradientTransform="matrix(104.08, -104.08, -104.08, -104.08, -121904.62, 93111.96)" gradientUnits="userSpaceOnUse"><stop offset="0" stop-color="#ff8810"/><stop offset="1" stop-color="#ffae00"/></linearGradient><linearGradient id="linear-gradient-6" x1="1032.64" y1="-139.56" x2="1033.64" y2="-139.56" xlink:href="#linear-gradient"/><linearGradient id="linear-gradient-7" x1="1032.64" y1="-139.56" x2="1033.64" y2="-139.56" xlink:href="#linear-gradient-5"/></defs><title>Simplify</title><g id="Layer_2" data-name="Layer 2"><g id="Software"><path class="cls-1" d="M108.48,147.22h0l1.22,0Z"/><path class="cls-1" d="M107.11,117.86h0q1,0,2,0h.07l.3,0,1.58-.11.59-.06,1.34-.16.56-.07c.61-.09,1.22-.19,1.82-.3h0a43.92,43.92,0,0,0-8.16-14.16A43.76,43.76,0,0,0,99,117.11,43.76,43.76,0,0,0,107.11,117.86Z"/><path class="cls-1" d="M149.34,86.86h0v-.06h0l0-.12c-.16.51-.32,1-.5,1.52Q149.13,87.52,149.34,86.86Z"/><path class="cls-1" d="M145.5,87.69c-.92-.1-1.85-.17-2.78-.21-.63,0-1.27,0-1.91,0a44.5,44.5,0,0,0-7.85.7A72.59,72.59,0,0,1,141,102h0a44.18,44.18,0,0,0,7.89-13.82v0c-.91-.17-1.83-.3-2.76-.41Z"/><path class="cls-1" d="M104,64.62l.65.3c.85.4,1.69.8,2.52,1.23A73.1,73.1,0,0,1,140.81,58c.4,0,.8,0,1.21,0l1.83,0,1.19,0c1.22.07,2.44.16,3.64.29a44.28,44.28,0,0,0-41.51-29.06h0A44.31,44.31,0,0,0,65.58,58.46v0A71.93,71.93,0,0,1,73.63,58a73.18,73.18,0,0,1,27.85,5.48l.12,0C102.42,63.89,103.24,64.25,104,64.62Z"/><path class="cls-1" d="M99,117.11h0l-1.26-.26C98.19,116.94,98.6,117,99,117.11Z"/><path class="cls-1" d="M46.16,63.35Q43,64.62,40,66.17,43,64.62,46.16,63.35Z"/><path class="cls-1" d="M80.69,142.34q-2.27-.88-4.47-1.9Q78.42,141.47,80.69,142.34Z"/><path class="cls-1" d="M151.36,73.72v-.07h0c0,.5,0,1,0,1.49C151.34,74.65,151.36,74.19,151.36,73.72Z"/><path class="cls-1" d="M150.72,81.16h0V81h0c.06-.34.1-.69.15-1-.06.45-.13.89-.21,1.33Z"/><path class="cls-1" d="M151.36,73.61v-.08h0c0-.34,0-.67,0-1,0,.37,0,.74,0,1.11Z"/><path class="cls-1" d="M83.26,110.84h0l0,0,0,0h0l.47.29-.57-.35Z"/><path class="cls-1" d="M99.21,146.82h0l-.37-1Z"/><path class="cls-1" d="M39.74,103.25a44.22,44.22,0,0,0,33.88,72.64,44.47,44.47,0,0,0,7.85-.7,73.17,73.17,0,0,1-14.18-39.68q1,.64,2,1.25-1-.62-2-1.27A74,74,0,0,1,39.74,103.25Z"/><path class="cls-1" d="M174.57,103.18a74,74,0,0,1-27.4,32.21h0A73.1,73.1,0,0,1,133,175.2,44.25,44.25,0,0,0,185,131.67a44,44,0,0,0-10.45-28.52h0Z"/><path class="cls-1" d="M115.18,146.81h0c-1.22.14-2.46.23-3.7.31h0l-1.19,0h0c-.59,0-1.19.06-1.78.07v0c-.45,0-.9,0-1.36,0h0a71,71,0,0,1-7.88-.43h0a44.06,44.06,0,0,0,8,13.57,44.17,44.17,0,0,0,8-13.59Z"/><path class="cls-1" d="M73.35,102.14h0a72.91,72.91,0,0,1,8.11-14,45.23,45.23,0,0,0-7.84-.69,44.66,44.66,0,0,0-8.26.77h0a44,44,0,0,0,8,13.93Z"/><path class="cls-2" d="M107.13,147.26c.45,0,.9,0,1.36,0h0l.15-.41a44.25,44.25,0,0,0,.46-29q-1,0-2,0h0a43.76,43.76,0,0,1-8.08-.74h0c-.42-.08-.83-.17-1.24-.26l-.69-.15-1-.27-.94-.25-1-.29-1-.31-.91-.32-1-.37-.87-.35-1-.43-.83-.38-1-.49-.78-.39-1-.57-.7-.39c-.39-.23-.77-.46-1.16-.7l-.47-.29h0l0,0,0,0h0l0,0c-.84-.54-1.65-1.12-2.45-1.71l-.37-.27Q79.26,108,78.18,107l-.4-.35q-1.08-1-2.09-2l-.29-.3c-.7-.72-1.39-1.47-2-2.24h0a44,44,0,0,1-8-13.93,44.25,44.25,0,0,0-25.63,15,74,74,0,0,0,27.51,32.24q1,.65,2,1.27l.45.26,1.63.94.55.31,1.6.85.55.28,1.76.86.4.19q2.2,1,4.47,1.9l.53.2,1.7.62.76.26,1.51.49.79.24q1.42.43,2.87.8l.51.12q1.32.33,2.66.61l.5.11q1.47.3,3,.53l.66.1c1,.15,2,.29,3,.39h.06l-.36-1,.37,1h0a71,71,0,0,0,7.88.43Z"/><path class="cls-3" d="M111.46,147.12h0l-1.18,0Z"/><path class="cls-4" d="M46.16,63.35c.85-.34,1.7-.68,2.57-1a72.84,72.84,0,0,1,16.85-3.88v0a44.31,44.31,0,0,1,41.56-29.07h0a44.28,44.28,0,0,1,41.51,29.06h0q.33.89.61,1.79c.06.19.11.38.17.58.13.41.25.83.37,1.25.06.24.12.48.18.71s.2.76.28,1.14.11.53.16.79.15.72.22,1.09.09.55.13.83.12.72.17,1.08.06.57.1.86.09.71.12,1.07,0,.6.06.9.05.7.07,1.05,0,.62,0,.93,0,.67,0,1h0v.1h0v.07c0,.47,0,.93,0,1.4,0,.14,0,.29,0,.43q0,.93-.12,1.85c0,.17,0,.33-.05.49,0,.45-.09.89-.14,1.34,0,.23-.07.47-.1.7s-.09.69-.15,1h0v.2h0l0,.09c-.14.82-.31,1.63-.5,2.43l-.13.56c-.2.81-.42,1.62-.67,2.41l0,.12h0v.06h0q-.21.66-.44,1.32v0A44.18,44.18,0,0,1,141,102a72.7,72.7,0,0,1,2.67,7c.1.32.19.65.29,1a73,73,0,0,1,3.18,17.76q.1,2,.1,3.93c0,1.26,0,2.49-.09,3.73a74,74,0,0,0,27.4-32.21v0h0c.45-1,.87-2.07,1.28-3.12l.19-.49c.33-.89.64-1.79.94-2.69.09-.28.2-.56.29-.85q.52-1.62,1-3.27c.06-.23.11-.46.17-.69q.34-1.33.64-2.67c.08-.37.16-.75.23-1.13q.24-1.17.44-2.36c.06-.39.13-.77.19-1.16.14-.89.25-1.79.36-2.7,0-.26.07-.52.1-.79q.18-1.74.28-3.51c0-.29,0-.59,0-.88,0-1.07.08-2.14.08-3.22,0-1.28,0-2.56-.1-3.82A73.71,73.71,0,0,0,107.18,0h0A73.73,73.73,0,0,0,33.6,69.85v0A73.27,73.27,0,0,1,40,66.17Q43,64.62,46.16,63.35Z"/><path class="cls-5" d="M108.48,147.22v0c.6,0,1.19,0,1.78-.07l-.55,0Z"/><path class="cls-6" d="M113.54,117.39l-.56.07-1.34.16-.59.06-1.58.11-.3,0h-.07a44.25,44.25,0,0,1-.46,29l-.15.41,1.22,0,.56,0,1.18,0c1.24-.07,2.48-.17,3.7-.31h0c.15-.4.28-.81.42-1.22.06-.19.13-.38.2-.57.33-1,.61-2.07.86-3.13,0-.18.09-.37.14-.55s.06-.3.09-.45q.31-1.45.52-2.94c.07-.46.12-.92.17-1.38a44.61,44.61,0,0,0,.28-4.91,43.69,43.69,0,0,0-2.48-14.58h0C114.76,117.2,114.15,117.3,113.54,117.39Z"/><path class="cls-7" d="M110.26,147.17h0l-.56,0Z"/><path class="cls-8" d="M110.26,147.17h0l-.56,0Z"/><path class="cls-9" d="M142.72,87.47h-.09a44.23,44.23,0,0,0-.47-29l-.14-.39c-.4,0-.8,0-1.21,0a73.1,73.1,0,0,0-33.59,8.12,74,74,0,0,0-25.75,22,72.91,72.91,0,0,0-8.11,14c.65.77,1.34,1.51,2,2.24l.29.3q1,1,2.09,2l.4.35q1.08.94,2.23,1.81l.37.27c.8.6,1.61,1.17,2.45,1.71l.57.35c.38.24.77.48,1.16.7l.7.39,1,.57.78.39,1,.49.83.38,1,.43.87.35,1,.37.91.32,1,.31,1,.29.94.25,1,.27.69.15,1.26.26h0a44.44,44.44,0,0,1,33.92-29,44.5,44.5,0,0,1,7.85-.7C141.45,87.43,142.08,87.45,142.72,87.47Z"/><path class="cls-10" d="M143.84,58.11l-1.83,0,.14.39a44.23,44.23,0,0,1,.47,29h.09c.94,0,1.86.11,2.78.21l.64.07c.93.11,1.85.24,2.76.41.18-.5.34-1,.5-1.52.25-.79.47-1.6.67-2.41l.13-.56c.19-.8.36-1.61.5-2.43.08-.44.14-.89.21-1.33,0-.23.07-.46.1-.7.06-.44.1-.89.14-1.34,0-.16,0-.33.05-.49q.08-.92.12-1.85c0-.14,0-.28,0-.43,0-.49,0-1,0-1.49s0-.74,0-1.11,0-.62,0-.93,0-.7-.07-1.05,0-.61-.06-.9-.08-.72-.12-1.07S151,68,151,67.7s-.11-.72-.17-1.08-.08-.55-.13-.83-.15-.73-.22-1.09-.1-.53-.16-.79-.19-.76-.28-1.14-.11-.48-.18-.71c-.11-.42-.24-.83-.37-1.25-.06-.19-.11-.39-.17-.58q-.29-.9-.61-1.79h0c-1.21-.13-2.42-.22-3.64-.29Z"/><path class="cls-9" d="M180.66,69.78v0c.06,1.26.1,2.54.1,3.82,0,1.08,0,2.15-.08,3.22,0,.29,0,.59,0,.88q-.1,1.77-.28,3.51c0,.26-.07.53-.1.79-.1.9-.22,1.8-.36,2.7-.06.39-.12.77-.19,1.16q-.2,1.18-.44,2.36c-.08.38-.15.75-.23,1.13q-.29,1.34-.64,2.67c-.06.23-.11.46-.17.69q-.44,1.65-1,3.27c-.09.28-.19.56-.29.85-.3.9-.61,1.8-.94,2.69l-.19.49c-.41,1.05-.83,2.1-1.28,3.12a44.2,44.2,0,0,1-33.78,72.74,44.41,44.41,0,0,1-41.55-29.07h-.1c-1-.11-2-.24-3-.39l-.66-.1q-1.49-.24-3-.53l-.5-.11q-1.34-.28-2.66-.61l-.51-.12q-1.44-.37-2.87-.8l-.79-.24-1.51-.49-.76-.26-1.7-.62-.53-.2q-2.27-.88-4.47-1.9l-.4-.19-1.76-.86-.55-.28-1.6-.85-.55-.31L69.74,137l-.45-.26q-1-.61-2-1.25A73.63,73.63,0,1,0,180.66,69.78Z"/><path class="cls-11" d="M147.16,135.39c.06-1.24.09-2.48.09-3.73s0-2.63-.1-3.93A73,73,0,0,0,144,110c-.1-.32-.19-.66-.29-1a72.7,72.7,0,0,0-2.67-7h0A72.59,72.59,0,0,0,133,88.13a44.17,44.17,0,0,0-25.74,14.8,43.92,43.92,0,0,1,8.16,14.16h0a43.69,43.69,0,0,1,2.48,14.58,44.61,44.61,0,0,1-.28,4.91c-.05.46-.11.92-.17,1.38q-.21,1.49-.52,2.94c0,.15-.06.3-.09.45s-.09.37-.14.55c-.25,1.06-.53,2.1-.86,3.13-.06.19-.13.38-.2.57-.14.41-.27.82-.42,1.22h0a44.17,44.17,0,0,1-8,13.59A44.15,44.15,0,0,0,133,175.2a73.1,73.1,0,0,0,14.21-39.81Z"/><path class="cls-11" d="M74.68,178q-.77-1.05-1.51-2.13h.45A44.24,44.24,0,0,1,65.37,88.2h0a44.66,44.66,0,0,1,8.26-.77q-.84,0-1.67,0l.2-.27a74,74,0,0,1,25.75-22q1.76-.91,3.57-1.72A73.18,73.18,0,0,0,73.63,58a71.93,71.93,0,0,0-8.05.45,72.84,72.84,0,0,0-16.85,3.88c-.86.31-1.72.64-2.57,1Q43,64.62,40,66.17a73.27,73.27,0,0,0-6.41,3.72h0a73.61,73.61,0,0,0,67.09,130.24l-.26-.13A73.89,73.89,0,0,1,74.68,178Z"/><path class="cls-12" d="M81.46,175.2a44.47,44.47,0,0,1-7.85.7h-.45Q73.9,177,74.68,178a73.89,73.89,0,0,0,25.74,22l.26.13.24-.09q1.45-.58,2.86-1.22l.53-.24c1-.45,1.95-.91,2.9-1.41A73.9,73.9,0,0,1,81.46,175.2Z"/><path class="cls-12" d="M107.22,66.15c-.83-.43-1.67-.83-2.52-1.23l-.65-.3c-.81-.37-1.63-.73-2.45-1.07l-.12,0q-1.81.81-3.57,1.72a74,74,0,0,0-25.75,22l-.2.27q.83,0,1.67,0a45.23,45.23,0,0,1,7.84.69A74,74,0,0,1,107.22,66.15Z"/></g></g></svg>